<svg xmlns="http://www.w3.org/2000/svg" xml:space="preserve" viewBox="0 0 512 512"><path fill="#D80027" d="M228 1h52l10 3v220h221l2 2v62l-3 2H290v221l-1 2h-63l-2-3V290H3l-2-1v-63l3-2h219l1-2V3l4-2z"/><path fill="#EEECED" d="m438 438-25 22-89-88v128l1 4-34 7-1-221h220l-5 31-1 3H372l88 89-7 9-95-96-4-2h-30l4 4 41 41 69 69zM101 460l-9-7 96-96 2-3v-30l-5 5-85 85-24 24-22-25 88-89H14l-4 1-7-34 221-1v220a696 696 0 0 1-34-6V372l-89 88z"/><path fill="#EEEDEE" d="M290 4a703 703 0 0 1 34 6v132l89-88 9 7-96 95-2 4v30l5-5 81-81 28-28 22 25-87 88-1 1h128l4-1 7 34-221 1V4zM54 101l7-9 96 96 3 2h30l-5-5-87-87-22-22 25-22 89 88V14l-1-4 34-7 1 219-1 2H4a706 706 0 0 1 6-34h132l-88-89z"/><path fill="#0052B4" d="m504 189-4 1H372l1-1 87-88c10 15 20 30 28 46 7 13 11 28 16 42zM413 53l-89 89v-2a199357 199357 0 0 1 0-130l21 7c23 8 44 20 63 34l5 2z"/><path fill="#D8052B" d="m438 75-28 29-81 81-5 5v-30l2-4 96-95 16 14z"/><path fill="#0052B4" d="m53 101 89 89h-3a194240 194240 0 0 1-129-1c8-32 23-61 43-88zM189 10l1 4v128l-89-88 41-26c15-7 31-12 47-18z"/><path fill="#D8052B" d="m76 76 22 22 87 87 5 5h-30l-3-2-96-96 15-16z"/><path fill="#0152B4" d="m10 325 4-1h128l-88 89-16-22c-11-18-20-38-26-58l-2-8z"/><path fill="#0052B4" d="m101 461 89-89v3a193928 193928 0 0 1-1 129 238 238 0 0 1-88-43z"/><path fill="#D80128" d="m76 439 24-25 85-85 5-5v30l-2 3-96 96-16-14z"/><path fill="#0052B4" d="m461 413-89-89h3a208809 208809 0 0 1 129 1c-8 31-21 59-41 84l-2 4zM325 504l-1-4V372l89 88-22 16c-18 11-38 20-58 26l-8 2z"/><path fill="#D80128" d="m439 438-70-69-41-41-4-4h30l4 2 95 96-14 16z"/></svg>