<svg xmlns="http://www.w3.org/2000/svg" version="1.0" viewBox="0 0 512 512"><path fill="#fcfcfc" d="M225 1c-5 1-12 5-16 9-6 6-8 11-11 35l-3 23-5 2-14 6-10 4-4-3-34-25c-6-3-16-4-24-2-5 2-6 3-29 25-22 23-23 24-24 29-3 8-2 18 1 24l14 20 13 17c1 1 0 4-3 11a269 269 0 0 0-8 19l-23 3c-24 3-29 5-35 11l-7 9-2 5v64l2 6c2 3 4 7 7 9 6 7 11 9 35 12l23 3 2 5 6 14c3 7 4 10 3 11l-13 17-14 20c-3 6-4 16-1 24 1 5 2 6 23 27 26 26 27 27 41 27 7 0 9 0 13-2l37-27c1-1 3 0 9 2l14 6c5 2 7 3 8 5l3 22c2 23 4 28 11 35l9 6 6 2 31 1h32l5-3 10-7c6-6 8-11 11-35l3-23 9-4 14-5c7-4 4-5 25 11l19 14c6 3 16 4 24 2 5-2 6-3 27-24 26-26 28-27 28-41 0-11-1-12-17-33l-13-17c-1-1 0-4 3-11a269 269 0 0 0 8-19l23-3c24-3 29-5 35-12 3-2 6-6 7-9l3-5v-63l-3-6-6-9c-7-7-12-9-36-12l-23-3-2-5-6-14c-3-7-4-10-3-11l13-17 14-20c3-6 4-16 2-24-2-5-3-6-25-29-23-22-24-23-29-24-8-3-18-2-24 1l-20 14c-20 16-18 15-25 11l-13-5-9-4-3-23c-3-24-5-29-12-35-2-3-6-5-9-7l-6-2-30-1-33 1zm42 149a105 105 0 0 1 86 61c19 41 10 90-23 121a105 105 0 0 1-148 0c-33-31-42-80-23-121a108 108 0 0 1 108-61z"/></svg>