<?xml version="1.0" encoding="UTF-8"?>
<svg xmlns="http://www.w3.org/2000/svg" width="100" height="100">
<path d="M0 0 C2.81005071 2.27841949 3.84898818 3.54696453 5 7 C5.10294355 8.79317955 5.14849081 10.58989879 5.16113281 12.38598633 C5.17074036 13.48755569 5.1803479 14.58912506 5.19024658 15.72407532 C5.19449646 16.91470078 5.19874634 18.10532623 5.203125 19.33203125 C5.20882507 20.55653488 5.21452515 21.78103851 5.22039795 23.04264832 C5.22985113 25.63592667 5.23638319 28.22921705 5.24023438 30.82250977 C5.24993559 34.7861838 5.28095522 38.74933843 5.3125 42.71289062 C5.31903049 45.23176775 5.32428078 47.75064859 5.328125 50.26953125 C5.3404718 51.45408401 5.3528186 52.63863678 5.36553955 53.85908508 C5.33689474 64.46357739 5.33689474 64.46357739 2 69 C-1.54583103 70.5759249 -3.72835854 71.38380497 -7.49707031 70.24633789 C-10.10364416 68.94839022 -11.66480133 67.6502599 -13.671875 65.55859375 C-14.66960938 64.55989258 -14.66960938 64.55989258 -15.6875 63.54101562 C-17.0568286 62.14445606 -18.41635531 60.73821434 -19.765625 59.32226562 C-24.05243862 55.07254943 -26.89958003 53.17370401 -33.02832031 53.14038086 C-36.23152507 52.91231712 -37.87085779 51.2622136 -40 49 C-41.52100043 44.43699872 -41.26635846 39.90526326 -41.3125 35.125 C-41.34150391 34.13113281 -41.37050781 33.13726562 -41.40039062 32.11328125 C-41.43914108 27.65995921 -41.46044167 24.81110917 -39.23046875 20.8828125 C-37.02387925 19.02015726 -35.80274057 18.25361745 -33 17.75 C-32.34 17.62109375 -31.68 17.4921875 -31 17.359375 C-29.70608766 17.12687513 -28.40994678 16.90632381 -27.11157227 16.70019531 C-24.41191375 15.80499117 -23.17591828 14.48706479 -21.21484375 12.4375 C-20.51939453 11.72335938 -19.82394531 11.00921875 -19.10742188 10.2734375 C-18.39134766 9.52320313 -17.67527344 8.77296875 -16.9375 8 C-15.51376407 6.51635755 -14.08556846 5.03697816 -12.65234375 3.5625 C-11.70862915 2.57443359 -11.70862915 2.57443359 -10.74584961 1.56640625 C-7.25149385 -1.56878975 -4.30330154 -1.14169224 0 0 Z " fill="#fff" transform="translate(57,15)"/>
<path d="M0 0 C1.3921875 0.3403125 1.3921875 0.3403125 2.8125 0.6875 C7.66090365 14.49679253 7.66090365 22.87820747 2.8125 36.6875 C0 37.375 0 37.375 -3.1875 37.6875 C-5.11328125 36.48828125 -5.11328125 36.48828125 -6.1875 34.6875 C-5.74477254 32.61008653 -5.28566435 30.53485866 -4.74609375 28.48046875 C-3.30804086 21.29020431 -3.5143833 13.58421141 -5.375 6.5 C-6.1875 2.6875 -6.1875 2.6875 -5.11328125 0.88671875 C-3.1875 -0.3125 -3.1875 -0.3125 0 0 Z " fill="#fff" transform="translate(78.1875,31.3125)"/>
</svg>
