<svg xmlns="http://www.w3.org/2000/svg" version="1.0" viewBox="0 0 512 512"><g fill="#0f0c04"><path d="m261 55-9 3-64 47-60 46h-23c-17 0-24 0-28 2-14 3-24 11-30 23l-4 7v73c0 81 0 79 6 89 6 9 18 18 28 20l28 1 24 1 56 42 62 45c13 7 32 3 43-9 9-10 9 8 9-184l-1-176c-1-10-4-15-9-21-8-7-19-11-28-9zM356 194l-8 6c-7 7-9 16-4 24l16 18 15 16-15 14-16 18c-4 8-2 20 4 26 6 5 17 7 23 3l19-16 15-15 16 15c17 17 19 18 29 18 11-1 19-10 19-21l-2-9-16-19-15-15 15-15c8-9 16-17 16-19 3-5 2-15-2-20-4-6-12-10-18-10-8 1-12 4-27 19l-14 15-16-15c-18-19-23-21-34-18z"/></g></svg>